<svg width="758" height="538" viewBox="0 0 758 538" fill="none" xmlns="http://www.w3.org/2000/svg">
<path d="M17.025 140.95L271.1 35.725L376.325 289.8L122.25 395L17.025 140.95ZM486.9 35.7L406.05 230.9L440.525 314.15L635.725 395L740.95 140.925L486.9 35.7Z" fill="#FFFAEE"/>
<path d="M518.175 501.6L406.05 230.9L486.9 35.7L440.725 16.575L379 165.575L317.275 16.575L271.1 35.7L376.325 289.775L317.45 314.15L239.825 501.6L286 520.725L379 296.225L472 520.725L518.175 501.6Z" fill="#716558"/>
<path d="M561.325 215.35L492.025 186.65L520.725 117.35L590.025 146.05L561.325 215.35ZM630.625 244.05L561.325 215.35L532.625 284.65L601.925 313.35L630.625 244.05ZM265.975 186.65L237.275 117.35L167.975 146.05L196.675 215.35L265.975 186.65ZM196.675 215.35L127.375 244.05L156.075 313.35L225.375 284.65L196.675 215.35ZM642.5 411.325L463.65 337.25L534.525 508.375L465.225 537.075L379 328.875L292.775 537.05L223.475 508.35L294.35 337.225L115.5 411.325L0.700012 134.175L324.05 0.225006L379 132.9L433.95 0.225006L757.3 134.175L642.5 411.325ZM392.525 165.575L406.05 198.25L470.575 42.475L447.475 32.9L392.525 165.575ZM244.5 330.85L225.375 284.65L294.675 255.95L313.8 302.15L360 283L340.875 236.8L294.675 255.95L265.975 186.65L312.175 167.5L283.475 98.2L237.275 117.325L218.125 71.175L148.85 99.875L167.975 146.05L98.675 174.775L79.55 128.575L33.35 147.7L52.475 193.9L98.675 174.775L127.375 244.05L81.175 263.2L109.875 332.5L156.075 313.375L175.2 359.575L244.5 330.85ZM359.675 310.2L327 323.725L256.125 494.85L279.225 504.425L359.675 310.2ZM501.85 494.85L310.525 32.9L287.425 42.475L478.775 504.425L501.85 494.85ZM582.775 359.55L601.925 313.35L648.1 332.475L676.8 263.175L630.6 244.05L659.3 174.75L705.5 193.875L724.625 147.675L678.425 128.55L659.3 174.75L590.025 146.05L609.125 99.85L539.825 71.15L520.7 117.35L474.5 98.225L445.8 167.525L492.025 186.65L463.3 255.95L423.025 239.275L446.625 296.25L463.3 255.95L532.6 284.675L513.475 330.875L582.775 359.55Z" fill="#231F20"/>
</svg>
