<svg width="528" height="528" viewBox="0 0 528 528" fill="none" xmlns="http://www.w3.org/2000/svg">
<path d="M320 264L516 68C523.303 60.5484 527.369 50.516 527.317 40.0829C527.264 29.6497 523.096 19.6589 515.719 12.2814C508.341 4.90399 498.35 0.736061 487.917 0.683367C477.484 0.630673 467.452 4.69747 460 12L264 208L68 12C60.5484 4.69747 50.516 0.630673 40.0829 0.683367C29.6497 0.736061 19.6589 4.90399 12.2814 12.2814C4.90399 19.6589 0.736061 29.6497 0.683367 40.0829C0.630673 50.516 4.69747 60.5484 12 68L208 264L12 460C4.69747 467.452 0.630673 477.484 0.683367 487.917C0.736061 498.35 4.90399 508.341 12.2814 515.719C19.6589 523.096 29.6497 527.264 40.0829 527.317C50.516 527.369 60.5484 523.303 68 516L264 320L460 516C467.452 523.303 477.484 527.369 487.917 527.317C498.35 527.264 508.341 523.096 515.719 515.719C523.096 508.341 527.264 498.35 527.317 487.917C527.369 477.484 523.303 467.452 516 460L320 264Z" fill="#DB3A3A"/>
</svg>
