<svg width="309" height="309" viewBox="0 0 309 309" fill="none" xmlns="http://www.w3.org/2000/svg">
<path d="M307.837 84.6715C305.508 72.6108 299.604 60.9835 290.288 51.6573C284.064 45.4429 276.813 40.747 269.137 37.6256C257.566 32.9387 244.958 31.76 232.878 34.1083C220.789 36.4373 209.19 42.3312 199.873 51.6573L176.826 74.6947C176.571 74.9591 176.345 75.2041 176.1 75.4872C176.194 75.4491 169.056 82.7293 168.99 82.8048C154.524 97.2517 176.666 122.392 193.13 105.955C193.178 105.898 193.253 106.03 193.347 106.059L223.806 75.5813C226.776 72.6392 230.124 70.4418 233.745 68.9994C239.167 66.7736 245.137 66.2178 250.833 67.3397C256.547 68.4429 261.885 71.1497 266.345 75.5813C269.325 78.5615 271.485 81.9369 272.947 85.5297C275.144 90.9329 275.709 96.9397 274.606 102.617C273.484 108.322 270.787 113.688 266.345 118.139L216.715 167.777C213.735 170.729 210.378 172.936 206.776 174.379C201.373 176.585 195.375 177.132 189.68 176.038C183.965 174.916 178.609 172.21 174.176 167.777C171.753 165.354 169.876 162.685 168.48 159.856C168.32 159.818 168.179 159.781 168.018 159.743C164.708 159.101 161.163 159.478 158.07 160.762C155.91 161.638 153.958 162.968 152.289 164.647L151.309 165.646C146.292 171.738 142.322 180.367 150.243 191.711C156.448 197.935 163.699 202.621 171.394 205.733C182.955 210.42 195.554 211.599 207.634 209.26C219.694 206.931 231.322 201.027 240.648 191.711L290.287 142.081C296.482 135.857 301.197 128.625 304.319 120.93C308.997 109.331 310.167 96.7514 307.837 84.6715Z" fill="#16A34A"/>
<path d="M115.891 201.414C115.825 201.452 115.73 201.338 115.655 201.31L85.2055 231.75C82.235 234.721 78.8686 236.908 75.2572 238.37C69.8539 240.567 63.8471 241.124 58.1795 240.03C52.4648 238.908 47.1183 236.211 42.6673 231.75C39.6968 228.789 37.5187 225.432 36.0474 221.82C33.85 216.417 33.2935 210.419 34.4064 204.743C35.5193 199.028 38.2255 193.672 42.6673 189.231L92.3065 139.591C95.2673 136.621 98.6247 134.433 102.236 132.99C107.639 130.784 113.618 130.218 119.314 131.321C125.029 132.443 130.385 135.15 134.845 139.591C137.24 142.014 139.135 144.683 140.531 147.512C140.692 147.55 140.823 147.578 140.974 147.616C144.284 148.238 147.839 147.889 150.932 146.607C153.091 145.73 155.044 144.4 156.722 142.703L157.684 141.712C162.72 135.62 166.69 126.973 158.75 115.638C152.545 109.434 145.312 104.737 137.617 101.625C126.047 96.9385 113.458 95.7508 101.378 98.0985C89.298 100.437 77.6712 106.331 68.3638 115.657L18.7247 165.287C12.5199 171.501 7.81431 178.743 4.69293 186.438C-0.00302442 198.029 -1.17264 210.599 1.17564 222.697C3.50461 234.758 9.4082 246.385 18.7247 255.683C24.9294 261.888 32.1813 266.622 39.8761 269.724C51.4563 274.42 64.0547 275.571 76.1154 273.233C88.1954 270.931 99.8221 265.028 109.129 255.684L132.167 232.675C132.422 232.383 132.667 232.147 132.903 231.882C132.817 231.901 139.966 224.621 140.013 224.565C154.487 210.089 132.327 184.959 115.891 201.414Z" fill="#16A34A"/>
<path d="M162.06 22.566L145.453 20.7175L144.992 55.9857L154.799 57.0702L162.06 22.566Z" fill="#16A34A"/>
<path d="M114.835 70.5075L91.6276 43.9528L80.1795 56.1269L108.082 77.6743L114.835 70.5075Z" fill="#16A34A"/>
<path d="M140.333 286.434L156.939 288.283L157.401 253.014L147.594 251.921L140.333 286.434Z" fill="#16A34A"/>
<path d="M187.558 238.511L210.765 265.047L222.222 252.863L194.301 231.307L187.558 238.511Z" fill="#16A34A"/>
</svg>
