<svg width="475" height="423" viewBox="0 0 475 423" fill="none" xmlns="http://www.w3.org/2000/svg">
<path d="M237.483 224.138C264.857 191.448 301.245 167.558 342.101 155.452C327.407 92.5612 290.184 37.251 237.483 -3.8147e-05C184.795 37.257 147.585 92.5664 132.899 155.452C173.743 167.564 210.118 191.454 237.483 224.138Z" fill="#0D9748"/>
<path d="M126.496 212.266C126.498 193.148 128.646 174.09 132.899 155.451C91.2652 143.214 46.9268 143.722 5.58318 156.91C-1.769 188.717 -1.86109 221.774 5.31385 253.621C12.4888 285.468 26.7459 315.285 47.0239 340.852C67.3019 366.419 93.0786 387.077 122.435 401.289C151.791 415.501 183.972 422.901 216.58 422.938C222.576 422.938 228.505 422.667 234.366 422.192C168.777 373.891 126.496 297.81 126.496 212.266Z" fill="#0D9748"/>
<path d="M469.417 156.91C428.073 143.722 383.735 143.214 342.101 155.451C346.342 174.091 348.479 193.149 348.47 212.266C348.47 297.81 306.189 373.891 240.634 422.192C246.495 422.667 252.457 422.938 258.454 422.938C291.059 422.896 323.236 415.493 352.588 401.278C381.94 387.064 407.712 366.405 427.987 340.839C448.261 315.272 462.515 285.457 469.688 253.613C476.861 221.768 476.768 188.714 469.417 156.91Z" fill="#0D9748"/>
<path d="M348.47 212.266C348.479 193.149 346.342 174.091 342.101 155.451C301.245 167.558 264.857 191.448 237.483 224.138C210.118 191.454 173.743 167.564 132.899 155.451C128.658 174.091 126.521 193.149 126.53 212.266C126.53 297.81 168.811 373.891 234.366 422.192L237.517 421.921L240.668 422.192C306.189 373.891 348.47 297.81 348.47 212.266Z" fill="#41FB99"/>
</svg>
