<svg width="152" height="43" viewBox="0 0 152 43" fill="none" xmlns="http://www.w3.org/2000/svg">
<g clip-path="url(#clip0_56_229)">
<path d="M67.7802 23.1245C67.7767 23.3505 67.6852 23.5663 67.5251 23.7261C67.3649 23.886 67.1488 23.9773 66.9224 23.9808H58.5137C58.9528 25.6187 60.3282 26.4989 62.0439 26.4989C62.9399 26.5059 63.8089 26.1939 64.4951 25.6187C64.5961 25.5251 64.7253 25.4674 64.8625 25.4545C64.9998 25.4416 65.1375 25.4742 65.2542 25.5474L66.65 26.3765C66.7337 26.4287 66.8046 26.499 66.8574 26.5821C66.9103 26.6653 66.9439 26.7592 66.9556 26.857C66.9674 26.9548 66.9571 27.0539 66.9254 27.1472C66.8937 27.2405 66.8415 27.3255 66.7726 27.396C65.5051 28.6195 63.8035 29.2915 62.0405 29.265C57.9213 29.265 55.2012 26.5464 55.2012 22.7813C55.2012 18.8904 58.1187 16.2738 61.5503 16.2738C65.084 16.2738 67.9504 18.7443 67.7802 23.1245ZM64.6891 21.5817C64.3725 19.9438 63.2695 19.0365 61.6014 19.0365C60.083 19.0365 58.8779 19.9914 58.5137 21.5817H64.6891Z" fill="#0B460C"/>
<path d="M78.0409 16.566H79.6852C79.7931 16.5661 79.8993 16.5926 79.9946 16.6431C80.0898 16.6936 80.1712 16.7666 80.2317 16.8558C80.2921 16.945 80.3298 17.0476 80.3413 17.1547C80.3529 17.2617 80.338 17.37 80.298 17.4699C79.2767 20.039 76.3489 27.4062 75.7123 28.9727C74.5378 31.8578 73.4348 33.6928 70.9463 33.6928C70.6916 33.6904 70.4377 33.6666 70.1871 33.6214C70.0309 33.6038 69.8868 33.5291 69.7825 33.4118C69.6782 33.2945 69.621 33.1428 69.622 32.986V31.8102C69.6212 31.6411 69.6835 31.4778 69.7968 31.3521C69.9101 31.2265 70.0662 31.1475 70.2348 31.1306C71.5352 31.083 72.2774 30.3014 72.9582 28.2217C72.7846 27.8038 69.4041 20.1443 68.1922 17.4801C68.1462 17.3789 68.1267 17.2676 68.1354 17.1568C68.144 17.046 68.1807 16.9391 68.2418 16.8462C68.303 16.7533 68.3867 16.6774 68.4851 16.6254C68.5836 16.5734 68.6936 16.5472 68.805 16.549H70.3982C70.621 16.5477 70.8389 16.6152 71.0217 16.7424C71.2046 16.8695 71.3436 17.0501 71.4195 17.2593L74.3132 24.7352L77.0196 17.3C77.0941 17.0881 77.232 16.904 77.4147 16.7728C77.5973 16.6415 77.8159 16.5694 78.0409 16.566Z" fill="#0B460C"/>
<path d="M93.2208 23.1245C93.2173 23.3505 93.1258 23.5663 92.9657 23.7261C92.8055 23.886 92.5894 23.9773 92.3629 23.9808H83.9542C84.3968 25.6187 85.7687 26.4989 87.4845 26.4989C88.3804 26.5059 89.2495 26.1939 89.9356 25.6187C90.0367 25.5251 90.1658 25.4674 90.3031 25.4545C90.4403 25.4416 90.578 25.4742 90.6948 25.5474L92.094 26.3765C92.1748 26.4311 92.2428 26.5024 92.2936 26.5855C92.3444 26.6686 92.3767 26.7617 92.3883 26.8583C92.3999 26.955 92.3906 27.053 92.3609 27.1458C92.3313 27.2385 92.2821 27.3239 92.2165 27.396C90.9466 28.6145 89.2457 29.2826 87.4845 29.2548C83.3653 29.2548 80.6452 26.5362 80.6452 22.7711C80.6452 18.8802 83.5627 16.2636 86.9943 16.2636C90.5246 16.2738 93.3944 18.7443 93.2208 23.1245ZM90.1331 21.5817C89.8131 19.9438 88.7101 19.0365 87.0454 19.0365C85.5236 19.0365 84.3219 19.9914 83.9542 21.5817H90.1331Z" fill="#0B460C"/>
<path d="M95.8851 12H97.2469C97.4774 12.0036 97.6971 12.0982 97.8579 12.2632C98.0187 12.4281 98.1075 12.65 98.1048 12.8801V28.2466C98.1075 28.4771 98.0188 28.6993 97.8581 28.8648C97.6974 29.0303 97.4777 29.1257 97.2469 29.1301H95.8851C95.7688 29.1306 95.6535 29.108 95.5459 29.0638C95.4383 29.0196 95.3405 28.9545 95.2582 28.8724C95.176 28.7902 95.1108 28.6927 95.0665 28.5853C95.0221 28.4779 94.9996 28.3628 95 28.2466V12.8801C95 12.7643 95.0229 12.6495 95.0674 12.5425C95.112 12.4355 95.1772 12.3384 95.2594 12.2566C95.3417 12.1748 95.4393 12.1101 95.5467 12.066C95.654 12.022 95.769 11.9996 95.8851 12Z" fill="#0B460C"/>
<path d="M110.616 16.7234H111.977C112.093 16.7252 112.208 16.7499 112.314 16.796C112.42 16.8421 112.517 16.9088 112.597 16.9922C112.677 17.0756 112.74 17.1741 112.782 17.2819C112.825 17.3898 112.845 17.5049 112.842 17.6206V28.2636C112.843 28.3795 112.82 28.4943 112.776 28.6015C112.732 28.7086 112.667 28.8061 112.585 28.8881C112.503 28.9702 112.406 29.0354 112.299 29.0798C112.191 29.1242 112.076 29.1471 111.96 29.1471H110.599C110.483 29.1471 110.368 29.1242 110.26 29.0798C110.153 29.0354 110.056 28.9702 109.974 28.8881C109.892 28.8061 109.827 28.7086 109.783 28.6015C109.739 28.4943 109.716 28.3795 109.717 28.2636V27.6791C108.934 28.6986 107.674 29.4394 105.744 29.4394C101.897 29.4394 99.6912 26.1839 99.6912 22.9557C99.6912 19.7274 101.914 16.4312 105.761 16.4312C107.698 16.4312 108.951 17.1652 109.734 18.1914V17.6206C109.731 17.5034 109.752 17.3869 109.795 17.278C109.838 17.169 109.903 17.0698 109.985 16.9862C110.067 16.9025 110.165 16.8362 110.274 16.7911C110.382 16.746 110.498 16.723 110.616 16.7234ZM109.594 22.9387C109.594 21.0051 108.369 19.4148 106.234 19.4148C104.1 19.4148 102.878 21.0289 102.878 22.9387C102.878 24.8484 104.103 26.4626 106.234 26.4626C108.365 26.4626 109.611 24.845 109.611 22.9387H109.594Z" fill="#0B460C"/>
<path d="M126.459 21.593V28.2466C126.46 28.3625 126.437 28.4773 126.393 28.5845C126.349 28.6916 126.284 28.7891 126.202 28.8712C126.12 28.9532 126.023 29.0184 125.916 29.0628C125.809 29.1073 125.694 29.1301 125.578 29.1301H124.216C124.1 29.1301 123.985 29.1073 123.878 29.0628C123.771 29.0184 123.673 28.9532 123.591 28.8712C123.509 28.7891 123.444 28.6916 123.4 28.5845C123.356 28.4773 123.334 28.3625 123.334 28.2466V22.2285C123.334 20.6381 122.653 19.4386 120.907 19.4386C119.069 19.4386 118.258 20.7979 118.258 22.2285V28.2466C118.261 28.4771 118.172 28.6993 118.012 28.8648C117.851 29.0303 117.631 29.1257 117.4 29.1301H116.039C115.808 29.1257 115.588 29.0303 115.427 28.8648C115.267 28.6993 115.178 28.4771 115.181 28.2466V17.6206C115.178 17.3904 115.267 17.1686 115.428 17.0036C115.588 16.8387 115.808 16.744 116.039 16.7404H117.4C117.515 16.7418 117.628 16.7656 117.733 16.8106C117.838 16.8555 117.934 16.9207 118.014 17.0024C118.094 17.0842 118.157 17.1808 118.199 17.2869C118.242 17.3929 118.263 17.5063 118.262 17.6206V18.256C118.943 17.2536 120.076 16.4482 121.891 16.4482C125.03 16.4312 126.459 18.9493 126.459 21.593Z" fill="#0B460C"/>
<path d="M138.926 12H140.288C140.404 11.9996 140.519 12.022 140.626 12.0661C140.733 12.1102 140.83 12.175 140.912 12.2568C140.994 12.3386 141.059 12.4358 141.103 12.5428C141.147 12.6498 141.17 12.7644 141.17 12.8801V28.2466C141.17 28.3625 141.148 28.4773 141.103 28.5845C141.059 28.6916 140.994 28.7891 140.912 28.8712C140.831 28.9532 140.733 29.0184 140.626 29.0628C140.519 29.1073 140.404 29.1301 140.288 29.1301H138.926C138.695 29.1257 138.475 29.0303 138.315 28.8648C138.154 28.6993 138.065 28.4771 138.068 28.2466V27.6621C137.258 28.6816 136.026 29.4224 134.095 29.4224C130.248 29.4224 128.042 26.1669 128.042 22.9387C128.042 19.7104 130.248 16.4312 134.095 16.4312C136.032 16.4312 137.258 17.1652 138.068 18.1915V12.8801C138.065 12.65 138.154 12.4281 138.315 12.2632C138.476 12.0982 138.696 12.0036 138.926 12ZM137.905 22.9387C137.905 21.0051 136.703 19.4148 134.569 19.4148C132.434 19.4148 131.225 21.0187 131.225 22.9387C131.225 24.8587 132.451 26.4626 134.582 26.4626C136.713 26.4626 137.922 24.8451 137.922 22.9387H137.905Z" fill="#0B460C"/>
<path d="M23.8678 22.4551C26.6185 19.1801 30.2749 16.7867 34.3803 15.5738C32.9038 9.27316 29.1634 3.73197 23.8678 0C18.5734 3.73256 14.8342 9.27368 13.3586 15.5738C17.4628 16.7873 21.1179 19.1806 23.8678 22.4551Z" fill="#0D9748"/>
<path d="M12.7152 21.2657C12.7154 19.3503 12.9312 17.441 13.3586 15.5738C9.17497 14.3478 4.7196 14.3986 0.56515 15.7199C-0.17364 18.9064 -0.182893 22.2182 0.538086 25.4088C1.25907 28.5994 2.6917 31.5866 4.72936 34.1479C6.76701 36.7093 9.3572 38.779 12.3071 40.2028C15.257 41.6267 18.4907 42.368 21.7673 42.3717C22.3699 42.3717 22.9657 42.3445 23.5546 42.2969C16.9638 37.4579 12.7152 29.8359 12.7152 21.2657Z" fill="#0D9748"/>
<path d="M47.1738 15.7199C43.0194 14.3986 38.564 14.3478 34.3804 15.5738C34.8066 17.4412 35.0213 19.3505 35.0204 21.2657C35.0204 29.8359 30.7718 37.4579 24.1844 42.2969C24.7733 42.3445 25.3725 42.3717 25.9751 42.3717C29.2515 42.3675 32.4847 41.6258 35.4342 40.2017C38.3837 38.7777 40.9734 36.7079 43.0107 34.1466C45.048 31.5853 46.4803 28.5983 47.2011 25.408C47.9219 22.2177 47.9126 18.9061 47.1738 15.7199Z" fill="#0D9748"/>
<path d="M35.0203 21.2657C35.0213 19.3505 34.8066 17.4412 34.3803 15.5738C30.2749 16.7867 26.6185 19.1801 23.8678 22.4551C21.1179 19.1807 17.4628 16.7873 13.3586 15.5738C12.9323 17.4412 12.7177 19.3505 12.7186 21.2657C12.7186 29.8359 16.9672 37.458 23.5546 42.2969L23.8712 42.2698L24.1878 42.2969C30.7717 37.458 35.0203 29.8359 35.0203 21.2657Z" fill="#41FB99"/>
</g>
<defs>
<clipPath id="clip0_56_229">
<rect width="152" height="42.3717" fill="white"/>
</clipPath>
</defs>
</svg>
