<svg width="25" height="23" viewBox="0 0 25 23" fill="none" xmlns="http://www.w3.org/2000/svg">
<g clip-path="url(#clip0_524_5117)">
<path d="M12.5 22.54C19.1274 22.54 24.5 17.5972 24.5 11.5C24.5 5.40274 19.1274 0.459961 12.5 0.459961C5.87258 0.459961 0.5 5.40274 0.5 11.5C0.5 17.5972 5.87258 22.54 12.5 22.54Z" stroke="black" stroke-width="2" stroke-miterlimit="10" stroke-linecap="round"/>
<path d="M11.7663 13.9874V13.3112C11.7663 12.6507 11.9273 12.3048 12.3038 11.8259L13.5058 10.3079C14.1328 9.51625 14.3478 9.13675 14.3478 8.57555C14.3478 7.63531 13.6308 7.04145 12.6083 7.04145C11.6043 7.04145 10.9588 7.60219 10.7438 8.60867C10.7258 8.70757 10.6543 8.75725 10.5463 8.74069L9.4168 8.55899C9.3088 8.54243 9.2553 8.47665 9.2728 8.37729C9.5423 6.79351 10.7798 5.75391 12.6448 5.75391C14.5808 5.75391 15.8898 6.92507 15.8898 8.55853C15.8898 9.35065 15.5858 9.92795 14.9758 10.7035L13.7743 12.2215C13.4158 12.6668 13.3078 12.8977 13.3078 13.4584V13.9861C13.3078 14.085 13.2363 14.1507 13.1288 14.1507H11.9453C11.8378 14.1526 11.7663 14.0863 11.7663 13.9874ZM11.6768 15.5717C11.6768 15.4728 11.7483 15.407 11.8563 15.407H13.2193C13.3268 15.407 13.3983 15.4732 13.3983 15.5717V16.9903C13.3983 17.0897 13.3263 17.155 13.2193 17.155H11.8563C11.7478 17.155 11.6768 17.0892 11.6768 16.9903V15.5717Z" fill="black"/>
</g>
<defs>
<clipPath id="clip0_524_5117">
<rect width="25" height="23" fill="white"/>
</clipPath>
</defs>
</svg>
